<?xml version="1.0" encoding="UTF-8" standalone="no"?>
<!DOCTYPE svg PUBLIC "-//W3C//DTD SVG 1.1//EN" "http://www.w3.org/Graphics/SVG/1.1/DTD/svg11.dtd">
<svg width="100%" height="100%" viewBox="0 0 9934 7087" version="1.1" xmlns="http://www.w3.org/2000/svg" xmlns:xlink="http://www.w3.org/1999/xlink" xml:space="preserve" xmlns:serif="http://www.serif.com/" style="fill-rule:evenodd;clip-rule:evenodd;">
    <g transform="matrix(0.783297,0,0,0.783297,-810.365,742.314)">
        <g transform="matrix(33.8957,0,0,35.8198,7373.73,2085.63)">
            <g transform="matrix(1,0,0,1,-125.815,-39.1365)">
                <clipPath id="_clip1">
                    <rect x="0" y="0" width="251.63" height="78.273"/>
                </clipPath>
                <g clip-path="url(#_clip1)">
                    <g id="layer2" transform="matrix(1,0,0,1,-217.98,-379.44)">
                        <g id="path2402" transform="matrix(1,0,0,1,217.98,379.44)">
                            <path d="M32.312,0.5C30.494,0.5 26.259,1.704 23.531,3.219C20.804,4.734 15.656,8.688 15.656,8.688C15.656,8.688 3.525,21.702 2.312,24.126C1.1,26.549 0.5,31.719 0.5,31.719C0.5,31.719 26.869,24.144 28.688,24.75C30.506,25.356 31.719,29.594 31.719,29.594L44.125,77.781C44.125,77.781 49.903,76.575 50.812,75.969C51.722,75.363 55.969,69.594 55.969,69.594C55.969,69.594 67.479,61.724 70.812,59.906C74.146,58.088 82.311,54.753 86.25,53.844C90.189,52.935 93.531,52.938 93.531,52.938L239.911,56.562C239.911,56.562 251.701,52.312 251.091,42.312C250.181,27.186 237.781,25.969 237.781,25.969L118.691,27.156C119.291,26.853 96.269,27.469 93.845,27.469C91.421,27.469 73.847,21.7 69.907,21.094C65.968,20.488 46.244,7.459 45.032,7.156C43.82,6.853 34.132,0.5 32.313,0.5L32.312,0.5ZM236.092,32C241.532,32 245.972,36.439 245.972,41.875C245.972,47.311 241.532,51.719 236.092,51.719C230.662,51.719 226.252,47.311 226.252,41.875C226.252,36.439 230.662,32 236.092,32Z" style="fill:rgb(175,175,175);stroke:rgb(43,43,43);stroke-width:1px;"/>
                        </g>
                        <path id="path2436" d="M260.15,449.94C260.15,449.94 244.7,447.21 238.94,444.48C235.64,442.92 230.19,439.92 227.04,437.38C224.69,435.49 224.09,433.73 224.09,433.73L253.79,425.39L260.15,449.94Z" style="fill:rgb(175,175,175);stroke:rgb(33,33,33);stroke-width:0.3px;"/>
                    </g>
                </g>
            </g>
        </g>
        <g>
            <g transform="matrix(1.10186,0,0,1.07865,1381.56,-4249.87)">
                <g transform="matrix(0.904951,0,0,0.92323,521.09,384.658)">
                    <ellipse cx="5482.35" cy="5010.52" rx="936.329" ry="915.201" style="fill:white;"/>
                </g>
                <g transform="matrix(1.06202,0,0,1.05303,-944.317,-794.72)">
                    <ellipse cx="5773.86" cy="7100.56" rx="604.219" ry="618.272" style="fill:white;"/>
                </g>
                <g transform="matrix(1.15504,0,0,1.16667,-481.576,-2149.23)">
                    <ellipse cx="5773.86" cy="7100.56" rx="604.219" ry="618.272" style="fill:white;"/>
                </g>
            </g>
            <g transform="matrix(3.23304,-9.55116,9.58362,3.10881,3816.14,2539.99)">
                <path d="M65.421,359.652C64.281,359.752 63.125,359.803 61.985,359.803C41.793,359.803 25.233,344.619 23.46,324.48C22.553,314.179 25.711,304.141 32.354,296.216C38.999,288.29 48.33,283.424 58.632,282.519C59.774,282.418 60.929,282.367 62.071,282.367C81.928,282.367 98.85,297.882 100.593,317.689C101.5,327.991 98.341,338.028 91.699,345.956C85.056,353.88 75.723,358.745 65.421,359.652M92.902,372.599C94.711,371.515 96.45,370.331 98.123,369.068L96.917,362.179C98.646,360.709 100.283,359.141 101.81,357.473L108.633,358.927C109.959,357.294 111.201,355.588 112.352,353.818L108.871,347.771C109.991,345.809 110.988,343.772 111.857,341.67L118.779,340.704C119.464,338.725 120.05,336.705 120.528,334.646L115.187,330.152C115.562,327.938 115.791,325.679 115.884,323.391L122.052,320.118C122.029,318.691 121.972,317.261 121.847,315.818C121.785,315.144 121.698,314.479 121.618,313.813L115.063,311.416C114.656,309.162 114.108,306.964 113.432,304.825L118.111,299.635C117.356,297.658 116.505,295.734 115.554,293.869L108.574,293.86C107.423,291.896 106.148,290.019 104.768,288.23L107.388,281.754C106.007,280.161 104.55,278.642 103.012,277.206L96.442,279.587C94.699,278.141 92.866,276.811 90.953,275.594L91.201,268.594C89.371,267.573 87.479,266.654 85.54,265.827L80.177,270.315C78.053,269.554 75.873,268.912 73.644,268.421L71.491,261.78C69.429,261.451 67.335,261.236 65.219,261.127L61.71,267.181C60.25,267.19 58.78,267.244 57.298,267.374C56.506,267.444 55.723,267.538 54.942,267.641L50.635,262.121C48.553,262.521 46.515,263.03 44.521,263.637L43.295,270.524C41.153,271.316 39.076,272.233 37.078,273.277L31.152,269.57C29.343,270.656 27.604,271.839 25.931,273.101L27.136,279.992C25.408,281.462 23.771,283.027 22.245,284.697L15.42,283.242C14.094,284.878 12.853,286.582 11.7,288.349L15.183,294.399C14.063,296.361 13.065,298.398 12.196,300.499L5.275,301.466C4.589,303.445 4.003,305.465 3.526,307.525L8.868,312.019C8.493,314.233 8.264,316.491 8.167,318.779L2,322.052C2.025,323.477 2.081,324.909 2.207,326.352C2.267,327.027 2.355,327.69 2.437,328.357L8.99,330.754C9.397,333.008 9.945,335.207 10.62,337.345L5.942,342.535C6.698,344.513 7.549,346.434 8.5,348.301L15.48,348.31C16.63,350.274 17.905,352.149 19.285,353.941L16.663,360.416C18.045,362.008 19.504,363.529 21.042,364.965L27.612,362.584C29.354,364.028 31.188,365.36 33.102,366.577L32.851,373.575C34.683,374.594 36.573,375.516 38.513,376.343L43.877,371.854C46.001,372.618 48.179,373.256 50.41,373.75L52.564,380.391C54.625,380.718 56.718,380.933 58.836,381.045L62.342,374.989C63.804,374.978 65.274,374.926 66.757,374.797C67.547,374.727 68.33,374.631 69.11,374.529L73.418,380.048C75.499,379.649 77.539,379.137 79.534,378.531L80.756,371.647C82.9,370.852 84.978,369.936 86.976,368.892L92.902,372.599ZM63.299,335.542C55.315,336.245 48.271,330.343 47.568,322.358C46.865,314.374 52.769,307.33 60.754,306.627C68.738,305.925 75.782,311.827 76.485,319.813C77.187,327.796 71.285,334.841 63.299,335.542M98.988,317.831C97.29,298.524 81.092,283.978 62.07,283.978C60.98,283.978 59.877,284.024 58.772,284.122C38.358,285.92 23.267,303.925 25.064,324.339C26.764,343.646 42.962,358.194 61.985,358.194C63.073,358.194 64.174,358.146 65.281,358.047C85.696,356.251 100.786,338.243 98.988,317.831M150.338,421.039C141.619,421.039 134.55,413.97 134.55,405.251C134.55,396.531 141.619,389.462 150.338,389.462C159.06,389.462 166.128,396.531 166.128,405.251C166.128,413.97 159.06,421.039 150.338,421.039M150.338,364.885C128.047,364.885 109.975,382.957 109.975,405.251C109.975,427.545 128.047,445.616 150.338,445.616C172.632,445.616 190.704,427.545 190.704,405.251C190.704,382.957 172.632,364.885 150.338,364.885M150.338,447.368C127.114,447.368 108.221,428.475 108.221,405.251C108.221,382.027 127.114,363.133 150.338,363.133C173.562,363.133 192.456,382.027 192.456,405.251C192.456,428.475 173.562,447.368 150.338,447.368M208.736,399.834C208.508,397.352 208.123,394.917 207.596,392.534L213.163,387.356C212.534,385.142 211.792,382.976 210.941,380.865L203.378,380.188C202.318,377.948 201.115,375.795 199.791,373.723L203.25,366.955C201.903,365.099 200.469,363.313 198.94,361.61L191.593,363.563C189.844,361.83 187.98,360.213 186.025,358.712L186.963,351.152C185.075,349.872 183.116,348.692 181.094,347.613L174.853,351.964C172.621,350.936 170.321,350.034 167.952,349.289L166.252,341.885C164.05,341.334 161.802,340.902 159.518,340.579L155.141,346.806C153.556,346.677 151.958,346.595 150.338,346.595C149.474,346.595 148.616,346.623 147.762,346.66L143.62,340.267C141.325,340.501 139.067,340.86 136.849,341.327L134.865,348.673C132.469,349.326 130.127,350.122 127.864,351.064L121.795,346.48C119.733,347.484 117.734,348.601 115.802,349.809L116.449,357.39C114.438,358.819 112.512,360.359 110.7,362.024L103.443,359.796C101.849,361.441 100.342,363.17 98.927,364.976L102.123,371.862C100.722,373.881 99.446,375.995 98.303,378.187L90.71,378.577C89.778,380.653 88.95,382.788 88.238,384.975L93.598,390.355C92.978,392.716 92.516,395.142 92.195,397.613L85.198,400.573C85.087,402.12 85.013,403.676 85.013,405.251C85.013,405.987 85.044,406.716 85.07,407.447L91.943,410.668C92.17,413.149 92.554,415.583 93.081,417.966L87.515,423.145C88.145,425.36 88.886,427.524 89.735,429.636L97.301,430.312C98.361,432.55 99.563,434.706 100.888,436.777L97.429,443.545C98.776,445.401 100.209,447.189 101.739,448.891L109.083,446.938C110.835,448.67 112.696,450.287 114.653,451.789L113.714,459.349C115.604,460.629 117.563,461.806 119.585,462.889L125.827,458.538C128.056,459.565 130.356,460.467 132.726,461.212L134.427,468.615C136.628,469.166 138.876,469.599 141.161,469.921L145.538,463.696C147.124,463.823 148.721,463.905 150.338,463.905C151.204,463.905 152.061,463.877 152.917,463.841L157.058,470.235C159.352,470.001 161.609,469.641 163.83,469.175L165.812,461.829C168.211,461.173 170.549,460.378 172.814,459.437L178.882,464.022C180.946,463.017 182.944,461.901 184.876,460.693L184.228,453.111C186.24,451.683 188.167,450.141 189.979,448.477L197.233,450.706C198.83,449.061 200.335,447.332 201.751,445.526L198.556,438.638C199.957,436.619 201.232,434.506 202.373,432.314L209.968,431.924C210.898,429.846 211.726,427.714 212.44,425.527L207.08,420.146C207.701,417.784 208.162,415.358 208.483,412.887L215.479,409.928C215.591,408.38 215.665,406.825 215.665,405.251C215.665,404.512 215.634,403.784 215.608,403.055L208.736,399.834ZM260.603,296.751C259.34,307.503 249.601,315.194 238.851,313.93C228.101,312.667 220.407,302.929 221.671,292.178C222.934,281.427 232.673,273.735 243.424,274.998C254.174,276.26 261.866,286.001 260.603,296.751M246.98,244.699C244.996,244.465 243.025,244.351 241.074,244.351C216.015,244.353 194.365,263.122 191.371,288.621C188.143,316.105 207.807,341.003 235.292,344.232C237.278,344.466 239.248,344.576 241.199,344.576C266.259,344.576 287.908,325.807 290.902,300.309C294.13,272.826 274.466,247.926 246.98,244.699M293.063,300.564C289.97,326.895 267.674,346.752 241.199,346.752C239.155,346.752 237.083,346.631 235.039,346.392C221.168,344.763 208.763,337.828 200.108,326.869C191.452,315.911 187.582,302.237 189.211,288.367C192.303,262.038 214.599,242.178 241.074,242.177L241.078,242.177C243.121,242.177 245.191,242.298 247.234,242.539C261.104,244.168 273.51,251.1 282.167,262.059C290.82,273.018 294.691,286.693 293.063,300.564M313.916,296.24C313.997,293.148 313.876,290.091 313.571,287.076L321.183,281.5C320.727,278.679 320.126,275.902 319.386,273.175L310.154,271.246C309.175,268.333 308.002,265.502 306.669,262.757L311.914,254.914C310.524,252.429 309.014,250.018 307.375,247.697L298.034,249.043C296.128,246.654 294.068,244.391 291.873,242.255L294.123,233.071C291.979,231.22 289.732,229.483 287.397,227.856L279.074,232.319C276.473,230.728 273.768,229.282 270.953,228.02L269.928,218.648C267.294,217.649 264.585,216.788 261.817,216.061L255.518,223.106C253.583,222.715 251.624,222.382 249.629,222.148C248.564,222.024 247.501,221.933 246.441,221.856L242.263,213.375C239.399,213.331 236.564,213.449 233.762,213.701L230.252,222.471C227.201,222.931 224.202,223.573 221.271,224.404L214.456,217.874C211.765,218.813 209.141,219.9 206.583,221.109L206.283,230.552C203.598,232.022 201.001,233.643 198.525,235.432L189.901,231.634C187.698,233.431 185.589,235.345 183.582,237.365L186.525,246.321C184.505,248.608 182.628,251.028 180.902,253.565L171.484,252.945C170.035,255.372 168.704,257.882 167.508,260.475L173.336,267.883C172.233,270.709 171.31,273.631 170.556,276.63L161.503,279.265C161.145,281.157 160.825,283.066 160.598,285.005C160.491,285.914 160.425,286.817 160.349,287.724L168.356,292.688C168.277,295.781 168.399,298.839 168.704,301.853L161.091,307.431C161.546,310.251 162.146,313.028 162.89,315.755L172.118,317.685C173.101,320.597 174.271,323.429 175.604,326.174L170.36,334.017C171.75,336.502 173.259,338.913 174.901,341.232L184.238,339.888C186.146,342.276 188.208,344.539 190.401,346.674L188.15,355.86C190.293,357.711 192.539,359.448 194.877,361.075L203.2,356.612C205.801,358.203 208.505,359.648 211.32,360.909L212.345,370.282C214.979,371.281 217.688,372.14 220.458,372.869L226.755,365.825C228.693,366.212 230.649,366.546 232.645,366.781C233.709,366.908 234.771,366.996 235.832,367.075L240.011,375.555C242.874,375.596 245.711,375.482 248.513,375.229L252.023,366.461C255.074,366.001 258.074,365.358 261.002,364.525L267.818,371.055C270.508,370.114 273.132,369.029 275.693,367.82L275.991,358.377C278.676,356.908 281.272,355.288 283.748,353.498L292.372,357.297C294.576,355.499 296.684,353.584 298.693,351.563L295.75,342.609C297.771,340.323 299.644,337.902 301.374,335.366L310.79,335.984C312.238,333.556 313.569,331.046 314.765,328.455L308.936,321.046C310.042,318.22 310.962,315.298 311.717,312.3L320.771,309.663C321.129,307.771 321.449,305.865 321.676,303.923C321.783,303.013 321.85,302.112 321.925,301.207L313.916,296.24Z" style="fill:rgb(3,120,236);fill-rule:nonzero;"/>
            </g>
        </g>
    </g>
    <g transform="matrix(0.72694,0,0,0.639434,-163.183,1472.5)">
        <g transform="matrix(1780.5,0,0,1780.5,205.677,5663.13)">
            <rect x="0.096" y="-0.706" width="0.099" height="0.706" style="fill:rgb(3,120,236);fill-rule:nonzero;"/>
        </g>
        <g transform="matrix(1780.5,0,0,1780.5,723.803,5663.13)">
            <path d="M0.096,0L0.195,0L0.195,-0.458C0.195,-0.498 0.188,-0.561 0.188,-0.561L0.19,-0.561C0.19,-0.561 0.223,-0.497 0.249,-0.458L0.564,0L0.661,0L0.661,-0.706L0.562,-0.706L0.562,-0.247C0.562,-0.208 0.569,-0.145 0.569,-0.145L0.567,-0.145C0.567,-0.145 0.534,-0.209 0.508,-0.247L0.194,-0.706L0.096,-0.706L0.096,0Z" style="fill:rgb(3,120,236);fill-rule:nonzero;"/>
        </g>
        <g transform="matrix(1780.5,0,0,1780.5,2071.64,5663.13)">
            <path d="M0.042,-0.081C0.042,-0.081 0.126,0.012 0.276,0.012C0.416,0.012 0.5,-0.078 0.5,-0.187C0.5,-0.416 0.158,-0.377 0.158,-0.523C0.158,-0.579 0.211,-0.626 0.286,-0.626C0.376,-0.626 0.441,-0.565 0.441,-0.565L0.486,-0.647C0.486,-0.647 0.417,-0.718 0.286,-0.718C0.153,-0.718 0.058,-0.631 0.058,-0.521C0.058,-0.304 0.4,-0.337 0.4,-0.184C0.4,-0.117 0.344,-0.08 0.278,-0.08C0.173,-0.08 0.098,-0.156 0.098,-0.156L0.042,-0.081Z" style="fill:rgb(3,120,236);fill-rule:nonzero;"/>
        </g>
        <g transform="matrix(1780.5,0,0,1780.5,3043.79,5663.13)">
            <path d="M0.247,0L0.346,0L0.346,-0.62L0.588,-0.62L0.588,-0.706L0.005,-0.706L0.005,-0.62L0.247,-0.62L0.247,0Z" style="fill:rgb(3,120,236);fill-rule:nonzero;"/>
        </g>
        <g transform="matrix(1780.5,0,0,1780.5,4023.07,5663.13)">
            <path d="M0.517,0L0.62,0L0.366,-0.706L0.262,-0.706L0.008,0L0.11,0L0.18,-0.203L0.446,-0.203L0.517,0ZM0.315,-0.609C0.315,-0.609 0.33,-0.545 0.342,-0.509L0.42,-0.285L0.206,-0.285L0.285,-0.509C0.297,-0.545 0.313,-0.609 0.313,-0.609L0.315,-0.609Z" style="fill:rgb(3,120,236);fill-rule:nonzero;"/>
        </g>
        <g transform="matrix(1780.5,0,0,1780.5,5141.22,5663.13)">
            <path d="M0.096,0L0.511,0L0.511,-0.086L0.195,-0.086L0.195,-0.706L0.096,-0.706L0.096,0Z" style="fill:rgb(3,120,236);fill-rule:nonzero;"/>
        </g>
        <g transform="matrix(1780.5,0,0,1780.5,6100.91,5663.13)">
            <path d="M0.517,0L0.62,0L0.366,-0.706L0.262,-0.706L0.008,0L0.11,0L0.18,-0.203L0.446,-0.203L0.517,0ZM0.315,-0.609C0.315,-0.609 0.33,-0.545 0.342,-0.509L0.42,-0.285L0.206,-0.285L0.285,-0.509C0.297,-0.545 0.313,-0.609 0.313,-0.609L0.315,-0.609Z" style="fill:rgb(3,120,236);fill-rule:nonzero;"/>
        </g>
        <g transform="matrix(1780.5,0,0,1780.5,7211.94,5663.13)">
            <path d="M0.048,-0.357C0.048,-0.15 0.197,0.012 0.409,0.012C0.586,0.012 0.683,-0.1 0.683,-0.1L0.63,-0.171C0.63,-0.171 0.545,-0.079 0.412,-0.079C0.255,-0.079 0.15,-0.207 0.15,-0.358C0.15,-0.508 0.253,-0.628 0.411,-0.628C0.533,-0.628 0.615,-0.551 0.615,-0.551L0.664,-0.625C0.664,-0.625 0.577,-0.718 0.407,-0.718C0.202,-0.718 0.048,-0.562 0.048,-0.357Z" style="fill:rgb(3,120,236);fill-rule:nonzero;"/>
        </g>
        <g transform="matrix(1780.5,0,0,1780.5,8497.47,5663.13)">
            <rect x="0.096" y="-0.706" width="0.099" height="0.706" style="fill:rgb(3,120,236);fill-rule:nonzero;"/>
        </g>
        <g transform="matrix(1780.5,0,0,1780.5,9015.59,5663.13)">
            <path d="M0.048,-0.358C0.048,-0.15 0.207,0.012 0.411,0.012C0.615,0.012 0.773,-0.15 0.773,-0.358C0.773,-0.561 0.615,-0.718 0.411,-0.718C0.207,-0.718 0.048,-0.561 0.048,-0.358ZM0.15,-0.358C0.15,-0.512 0.267,-0.628 0.411,-0.628C0.555,-0.628 0.671,-0.512 0.671,-0.358C0.671,-0.199 0.555,-0.079 0.411,-0.079C0.267,-0.079 0.15,-0.199 0.15,-0.358Z" style="fill:rgb(3,120,236);fill-rule:nonzero;"/>
        </g>
        <g transform="matrix(1780.5,0,0,1780.5,10477.4,5663.13)">
            <path d="M0.096,0L0.195,0L0.195,-0.458C0.195,-0.498 0.188,-0.561 0.188,-0.561L0.19,-0.561C0.19,-0.561 0.223,-0.497 0.249,-0.458L0.564,0L0.661,0L0.661,-0.706L0.562,-0.706L0.562,-0.247C0.562,-0.208 0.569,-0.145 0.569,-0.145L0.567,-0.145C0.567,-0.145 0.534,-0.209 0.508,-0.247L0.194,-0.706L0.096,-0.706L0.096,0Z" style="fill:rgb(3,120,236);fill-rule:nonzero;"/>
        </g>
        <g transform="matrix(1780.5,0,0,1780.5,11825.2,5663.13)">
            <path d="M0.096,0L0.523,0L0.523,-0.086L0.195,-0.086L0.195,-0.313L0.448,-0.313L0.448,-0.399L0.195,-0.399L0.195,-0.62L0.506,-0.62L0.506,-0.706L0.096,-0.706L0.096,0Z" style="fill:rgb(3,120,236);fill-rule:nonzero;"/>
        </g>
        <g transform="matrix(1780.5,0,0,1780.5,12845.4,5663.13)">
            <path d="M0.042,-0.081C0.042,-0.081 0.126,0.012 0.276,0.012C0.416,0.012 0.5,-0.078 0.5,-0.187C0.5,-0.416 0.158,-0.377 0.158,-0.523C0.158,-0.579 0.211,-0.626 0.286,-0.626C0.376,-0.626 0.441,-0.565 0.441,-0.565L0.486,-0.647C0.486,-0.647 0.417,-0.718 0.286,-0.718C0.153,-0.718 0.058,-0.631 0.058,-0.521C0.058,-0.304 0.4,-0.337 0.4,-0.184C0.4,-0.117 0.344,-0.08 0.278,-0.08C0.173,-0.08 0.098,-0.156 0.098,-0.156L0.042,-0.081Z" style="fill:rgb(3,120,236);fill-rule:nonzero;"/>
        </g>
    </g>
    <g transform="matrix(0.783297,0,0,0.783297,-152.231,376.318)">
        <g transform="matrix(1250,0,0,1250,284.897,7308.81)">
            <path d="M0.074,0L0.173,0L0.207,-0.445C0.21,-0.488 0.209,-0.551 0.209,-0.551L0.211,-0.551C0.211,-0.551 0.233,-0.483 0.249,-0.445L0.389,-0.127L0.477,-0.127L0.618,-0.445C0.635,-0.484 0.656,-0.549 0.656,-0.549L0.658,-0.549C0.658,-0.549 0.656,-0.488 0.659,-0.445L0.694,0L0.792,0L0.735,-0.706L0.631,-0.706L0.469,-0.324C0.453,-0.285 0.434,-0.229 0.434,-0.229L0.432,-0.229C0.432,-0.229 0.413,-0.285 0.397,-0.324L0.235,-0.706L0.131,-0.706L0.074,0Z" style="fill:rgb(175,175,175);fill-rule:nonzero;"/>
        </g>
        <g transform="matrix(1250,0,0,1250,1367.4,7308.81)">
            <path d="M0.075,-0.607L0.173,-0.607L0.173,-0.706L0.075,-0.706L0.075,-0.607ZM0.076,0L0.173,0L0.173,-0.506L0.076,-0.506L0.076,0Z" style="fill:rgb(175,175,175);fill-rule:nonzero;"/>
        </g>
        <g transform="matrix(1250,0,0,1250,1678.65,7308.81)">
            <path d="M0.121,0.092L0.089,0.168C0.138,0.193 0.201,0.21 0.262,0.21C0.39,0.21 0.517,0.146 0.517,-0.021L0.517,-0.506L0.424,-0.506L0.424,-0.459C0.424,-0.45 0.425,-0.443 0.425,-0.443L0.423,-0.443C0.423,-0.443 0.386,-0.518 0.264,-0.518C0.124,-0.518 0.043,-0.41 0.043,-0.265C0.043,-0.119 0.128,-0.006 0.269,-0.006C0.342,-0.006 0.389,-0.035 0.419,-0.085L0.421,-0.085C0.421,-0.085 0.42,-0.069 0.42,-0.053L0.42,-0.016C0.42,0.087 0.348,0.126 0.26,0.126C0.184,0.126 0.121,0.092 0.121,0.092ZM0.288,-0.09C0.197,-0.09 0.141,-0.162 0.141,-0.267C0.141,-0.37 0.191,-0.434 0.279,-0.434C0.358,-0.434 0.422,-0.396 0.422,-0.264C0.422,-0.132 0.358,-0.09 0.288,-0.09Z" style="fill:rgb(175,175,175);fill-rule:nonzero;"/>
        </g>
        <g transform="matrix(1250,0,0,1250,2419.9,7308.81)">
            <path d="M0.069,-0.182C0.069,-0.048 0.128,0.012 0.242,0.012C0.341,0.012 0.407,-0.054 0.428,-0.104L0.43,-0.104C0.43,-0.104 0.428,-0.088 0.428,-0.067L0.428,0L0.522,0L0.522,-0.506L0.425,-0.506L0.425,-0.269C0.425,-0.169 0.364,-0.078 0.261,-0.078C0.18,-0.078 0.166,-0.134 0.166,-0.204L0.166,-0.506L0.069,-0.506L0.069,-0.182Z" style="fill:rgb(175,175,175);fill-rule:nonzero;"/>
        </g>
        <g transform="matrix(1250,0,0,1250,3167.4,7308.81)">
            <path d="M0.041,-0.253C0.041,-0.103 0.15,0.012 0.309,0.012C0.43,0.012 0.505,-0.06 0.505,-0.06L0.465,-0.131C0.465,-0.131 0.402,-0.072 0.315,-0.072C0.225,-0.072 0.146,-0.128 0.141,-0.239L0.51,-0.239C0.51,-0.239 0.513,-0.268 0.513,-0.281C0.513,-0.412 0.437,-0.518 0.294,-0.518C0.15,-0.518 0.041,-0.414 0.041,-0.253ZM0.144,-0.312C0.158,-0.395 0.218,-0.441 0.292,-0.441C0.357,-0.441 0.411,-0.399 0.414,-0.312L0.144,-0.312Z" style="fill:rgb(175,175,175);fill-rule:nonzero;"/>
        </g>
        <g transform="matrix(1250,0,0,1250,3861.15,7308.81)">
            <path d="M0.07,-0.138C0.07,-0.011 0.151,0.004 0.206,0.004C0.223,0.004 0.238,0.002 0.238,0.002L0.238,-0.084C0.238,-0.084 0.23,-0.083 0.221,-0.083C0.191,-0.083 0.167,-0.094 0.167,-0.155L0.167,-0.706L0.07,-0.706L0.07,-0.138Z" style="fill:rgb(175,175,175);fill-rule:nonzero;"/>
        </g>
        <g transform="matrix(1250,0,0,1250,4513.65,7308.81)">
            <path d="M0.517,0L0.62,0L0.366,-0.706L0.262,-0.706L0.008,0L0.11,0L0.18,-0.203L0.446,-0.203L0.517,0ZM0.315,-0.609C0.315,-0.609 0.33,-0.545 0.342,-0.509L0.42,-0.285L0.206,-0.285L0.285,-0.509C0.297,-0.545 0.313,-0.609 0.313,-0.609L0.315,-0.609Z" style="fill:rgb(175,175,175);fill-rule:nonzero;"/>
        </g>
        <g transform="matrix(1250,0,0,1250,5298.65,7308.81)">
            <rect x="0.076" y="-0.103" width="0.102" height="0.103" style="fill:rgb(175,175,175);fill-rule:nonzero;"/>
        </g>
        <g transform="matrix(1250,0,0,1250,5937.4,7308.81)">
            <path d="M0.517,0L0.62,0L0.366,-0.706L0.262,-0.706L0.008,0L0.11,0L0.18,-0.203L0.446,-0.203L0.517,0ZM0.315,-0.609C0.315,-0.609 0.33,-0.545 0.342,-0.509L0.42,-0.285L0.206,-0.285L0.285,-0.509C0.297,-0.545 0.313,-0.609 0.313,-0.609L0.315,-0.609Z" style="fill:rgb(175,175,175);fill-rule:nonzero;"/>
        </g>
        <g transform="matrix(1250,0,0,1250,6722.4,7308.81)">
            <path d="M0.076,0L0.173,0L0.173,-0.207C0.173,-0.238 0.176,-0.269 0.185,-0.298C0.208,-0.373 0.265,-0.417 0.327,-0.417C0.342,-0.417 0.355,-0.414 0.355,-0.414L0.355,-0.51C0.355,-0.51 0.343,-0.512 0.33,-0.512C0.252,-0.512 0.193,-0.454 0.17,-0.38L0.168,-0.38C0.168,-0.38 0.17,-0.397 0.17,-0.418L0.17,-0.506L0.076,-0.506L0.076,0Z" style="fill:rgb(175,175,175);fill-rule:nonzero;"/>
        </g>
        <g transform="matrix(1250,0,0,1250,7191.15,7308.81)">
            <path d="M0.035,-0.142C0.035,-0.041 0.12,0.012 0.207,0.012C0.328,0.012 0.369,-0.088 0.369,-0.088L0.371,-0.088C0.371,-0.088 0.369,-0.071 0.369,-0.048L0.369,0L0.459,0L0.459,-0.32C0.459,-0.448 0.387,-0.518 0.259,-0.518C0.143,-0.518 0.07,-0.458 0.07,-0.458L0.11,-0.387C0.11,-0.387 0.173,-0.436 0.251,-0.436C0.315,-0.436 0.362,-0.408 0.362,-0.325L0.362,-0.316L0.34,-0.316C0.255,-0.316 0.035,-0.309 0.035,-0.142ZM0.133,-0.147C0.133,-0.238 0.265,-0.243 0.338,-0.243L0.363,-0.243L0.363,-0.227C0.363,-0.152 0.31,-0.066 0.228,-0.066C0.165,-0.066 0.133,-0.106 0.133,-0.147Z" style="fill:rgb(175,175,175);fill-rule:nonzero;"/>
        </g>
        <g transform="matrix(1250,0,0,1250,7851.15,7308.81)">
            <path d="M0.076,0L0.173,0L0.173,-0.237C0.173,-0.262 0.175,-0.285 0.181,-0.305C0.202,-0.378 0.264,-0.429 0.341,-0.429C0.422,-0.429 0.437,-0.373 0.437,-0.302L0.437,0L0.534,0L0.534,-0.324C0.534,-0.453 0.479,-0.518 0.36,-0.518C0.25,-0.518 0.19,-0.446 0.17,-0.402L0.168,-0.402C0.168,-0.402 0.17,-0.419 0.17,-0.439L0.17,-0.506L0.076,-0.506L0.076,0Z" style="fill:rgb(175,175,175);fill-rule:nonzero;"/>
        </g>
        <g transform="matrix(1250,0,0,1250,8604.9,7308.81)">
            <path d="M0.043,-0.253C0.043,-0.096 0.129,0.012 0.266,0.012C0.391,0.012 0.432,-0.082 0.432,-0.082L0.434,-0.082C0.434,-0.082 0.433,-0.068 0.433,-0.048L0.433,0L0.525,0L0.525,-0.706L0.428,-0.706L0.428,-0.472C0.428,-0.453 0.43,-0.438 0.43,-0.438L0.428,-0.438C0.428,-0.438 0.389,-0.518 0.272,-0.518C0.138,-0.518 0.043,-0.414 0.043,-0.253ZM0.142,-0.253C0.142,-0.368 0.208,-0.434 0.288,-0.434C0.384,-0.434 0.431,-0.344 0.431,-0.254C0.431,-0.125 0.36,-0.072 0.285,-0.072C0.201,-0.072 0.142,-0.143 0.142,-0.253Z" style="fill:rgb(175,175,175);fill-rule:nonzero;"/>
        </g>
        <g transform="matrix(1250,0,0,1250,9356.15,7308.81)">
            <path d="M0.035,-0.142C0.035,-0.041 0.12,0.012 0.207,0.012C0.328,0.012 0.369,-0.088 0.369,-0.088L0.371,-0.088C0.371,-0.088 0.369,-0.071 0.369,-0.048L0.369,0L0.459,0L0.459,-0.32C0.459,-0.448 0.387,-0.518 0.259,-0.518C0.143,-0.518 0.07,-0.458 0.07,-0.458L0.11,-0.387C0.11,-0.387 0.173,-0.436 0.251,-0.436C0.315,-0.436 0.362,-0.408 0.362,-0.325L0.362,-0.316L0.34,-0.316C0.255,-0.316 0.035,-0.309 0.035,-0.142ZM0.133,-0.147C0.133,-0.238 0.265,-0.243 0.338,-0.243L0.363,-0.243L0.363,-0.227C0.363,-0.152 0.31,-0.066 0.228,-0.066C0.165,-0.066 0.133,-0.106 0.133,-0.147Z" style="fill:rgb(175,175,175);fill-rule:nonzero;"/>
        </g>
        <g transform="matrix(1250,0,0,1250,10337.4,7308.81)">
            <path d="M0.042,-0.081C0.042,-0.081 0.126,0.012 0.276,0.012C0.416,0.012 0.5,-0.078 0.5,-0.187C0.5,-0.416 0.158,-0.377 0.158,-0.523C0.158,-0.579 0.211,-0.626 0.286,-0.626C0.376,-0.626 0.441,-0.565 0.441,-0.565L0.486,-0.647C0.486,-0.647 0.417,-0.718 0.286,-0.718C0.153,-0.718 0.058,-0.631 0.058,-0.521C0.058,-0.304 0.4,-0.337 0.4,-0.184C0.4,-0.117 0.344,-0.08 0.278,-0.08C0.173,-0.08 0.098,-0.156 0.098,-0.156L0.042,-0.081Z" style="fill:rgb(175,175,175);fill-rule:nonzero;"/>
        </g>
        <g transform="matrix(1250,0,0,1250,11013.6,7308.81)">
            <rect x="0.076" y="-0.103" width="0.102" height="0.103" style="fill:rgb(175,175,175);fill-rule:nonzero;"/>
        </g>
        <g transform="matrix(1250,0,0,1250,11652.4,7308.81)">
            <path d="M0.096,0L0.511,0L0.511,-0.086L0.195,-0.086L0.195,-0.706L0.096,-0.706L0.096,0Z" style="fill:rgb(175,175,175);fill-rule:nonzero;"/>
        </g>
        <g transform="matrix(1250,0,0,1250,12313.6,7308.81)">
            <rect x="0.076" y="-0.103" width="0.102" height="0.103" style="fill:rgb(175,175,175);fill-rule:nonzero;"/>
        </g>
    </g>
</svg>
